<svg width="30" height="30" viewBox="0 0 30 30" fill="none" xmlns="http://www.w3.org/2000/svg">
<path d="M15.0059 27.5039C8.10211 27.5039 2.50586 21.9077 2.50586 15.0039C2.50586 8.10016 8.10211 2.50391 15.0059 2.50391C21.9096 2.50391 27.5059 8.10016 27.5059 15.0039C27.5059 21.9077 21.9096 27.5039 15.0059 27.5039ZM15.0059 25.0039C17.658 25.0039 20.2016 23.9503 22.0769 22.075C23.9523 20.1996 25.0059 17.6561 25.0059 15.0039C25.0059 12.3517 23.9523 9.8082 22.0769 7.93284C20.2016 6.05747 17.658 5.00391 15.0059 5.00391C12.3537 5.00391 9.81016 6.05747 7.93479 7.93284C6.05943 9.8082 5.00586 12.3517 5.00586 15.0039C5.00586 17.6561 6.05943 20.1996 7.93479 22.075C9.81016 23.9503 12.3537 25.0039 15.0059 25.0039ZM8.75586 16.2539H20.0059V18.7539H15.0059V22.5039L8.75586 16.2539ZM15.0059 11.2539V7.50391L21.2559 13.7539H10.0059V11.2539H15.0059Z" fill="white"/>
</svg>
